<?xml version="1.0" encoding="utf-8"?>
<!-- Generator: Adobe Illustrator 21.0.2, SVG Export Plug-In . SVG Version: 6.00 Build 0)  -->
<svg version="1.1" id="Layer_1" xmlns="http://www.w3.org/2000/svg" xmlns:xlink="http://www.w3.org/1999/xlink" x="0px" y="0px"
	 viewBox="0 0 12.3 12.3" style="enable-background:new 0 0 12.3 12.3;" xml:space="preserve">
<style type="text/css">
	.st0{fill:#FFFFFF;}
</style>
<g>
	<path class="st0" d="M6.1,12.3C2.8,12.3,0,9.5,0,6.1S2.8,0,6.1,0s6.1,2.8,6.1,6.1S9.5,12.3,6.1,12.3z M6.1,1.1
		c-2.8,0-5.1,2.3-5.1,5.1s2.3,5.1,5.1,5.1s5.1-2.3,5.1-5.1S8.9,1.1,6.1,1.1z"/>
	<path class="st0" d="M8,6.3H6.1V3.4C6.1,3.2,5.9,3,5.7,3C5.5,3,5.3,3.2,5.3,3.4v3.3c0,0.2,0.2,0.4,0.4,0.4H8c0.2,0,0.4-0.2,0.4-0.4
		C8.4,6.5,8.2,6.3,8,6.3z"/>
</g>
</svg>
