<?xml version="1.0" encoding="utf-8"?>
<!-- Generator: Adobe Illustrator 20.1.0, SVG Export Plug-In . SVG Version: 6.00 Build 0)  -->
<svg version="1.1" id="Layer_1" xmlns="http://www.w3.org/2000/svg" xmlns:xlink="http://www.w3.org/1999/xlink" x="0px" y="0px"
	 viewBox="0 0 50 50" style="enable-background:new 0 0 50 50;" xml:space="preserve">
<style type="text/css">
	.st0{fill:#DE3C3B;}
	.st1{fill:#E2AF57;}
	.st2{fill:#333333;}
</style>
<g>
	<circle class="st0" cx="25" cy="25" r="24.1"/>
	<path class="st1" d="M48.2,31.7L44.3,25l3.9-6.7c-1.1-3.8-3.1-7.2-5.8-10h-7.7l-3.9-6.7C28.9,1.1,27,0.9,25,0.9s-3.9,0.3-5.8,0.7
		l-3.9,6.7H7.6c-2.7,2.8-4.7,6.2-5.8,10L5.7,25l-3.9,6.7c1.1,3.8,3.1,7.2,5.8,10h7.7l3.9,6.7c1.9,0.5,3.8,0.7,5.8,0.7
		s3.9-0.3,5.8-0.7l3.9-6.7h7.7C45.1,38.9,47.1,35.5,48.2,31.7z M29.8,33.4h-9.6L15.4,25l4.8-8.4h9.6l4.8,8.4L29.8,33.4z"/>
	<g>
		<path class="st2" d="M9.4,42.4h-2c3.1,3.1,7,5.4,11.4,6.6l-1-1.7C14.6,46.3,11.8,44.6,9.4,42.4z"/>
		<path class="st2" d="M40.7,7.6h2c-3.1-3.1-7-5.4-11.4-6.6l1,1.7C35.4,3.7,38.2,5.4,40.7,7.6z"/>
		<path class="st2" d="M6.1,9l-4.4,7.7l0.9,1.6c1.1-3.5,2.9-6.6,5.4-9.2H6.1z"/>
		<path class="st2" d="M1.6,25c0-1.7,0.2-3.3,0.5-4.9l-1-1.7c-0.6,2.1-0.9,4.3-0.9,6.6s0.3,4.5,0.9,6.6l1-1.7
			C1.7,28.3,1.6,26.7,1.6,25z"/>
		<path class="st2" d="M48.4,16.6L43.9,9h-1.9c2.4,2.6,4.3,5.7,5.4,9.2L48.4,16.6z"/>
		<path class="st2" d="M30.4,2.2l-0.9-1.6h-8.9l-0.9,1.6c1.7-0.4,3.5-0.6,5.4-0.6C26.8,1.5,28.6,1.8,30.4,2.2z"/>
		<path class="st2" d="M32.2,47.3l-1,1.7c4.4-1.1,8.3-3.4,11.4-6.6h-2C38.2,44.6,35.4,46.3,32.2,47.3z"/>
		<path class="st2" d="M19.7,47.8l0.9,1.6h8.9l0.9-1.6c-1.7,0.4-3.5,0.6-5.4,0.6C23.2,48.5,21.4,48.2,19.7,47.8z"/>
		<path class="st2" d="M43.9,41l4.4-7.7l-0.9-1.6c-1.1,3.5-2.9,6.6-5.4,9.2H43.9z"/>
		<path class="st2" d="M48.5,25c0,1.7-0.2,3.3-0.5,4.9l1,1.7c0.6-2.1,0.9-4.3,0.9-6.6s-0.3-4.5-0.9-6.6l-1,1.7
			C48.3,21.7,48.5,23.3,48.5,25z"/>
		<path class="st2" d="M1.7,33.4L6.1,41h1.8c-2.4-2.6-4.3-5.7-5.4-9.2L1.7,33.4z"/>
		<path class="st2" d="M17.8,2.7l1-1.7c-4.4,1.1-8.3,3.4-11.4,6.6h2C11.8,5.4,14.6,3.7,17.8,2.7z"/>
		<path class="st2" d="M47.9,20.1c-0.1-0.6-0.3-1.3-0.5-1.9l-3.5,6.1h-8.9l-4.4-7.7L35.1,9h7c-0.5-0.5-0.9-0.9-1.4-1.4h-5.6
			l-2.8-4.9c-0.6-0.2-1.2-0.4-1.9-0.5l3.5,6.1l-4.4,7.7h-8.8l-4.4-7.7l3.5-6.1c-0.6,0.1-1.3,0.3-1.9,0.5L15,7.6H9.4
			C8.9,8,8.4,8.5,7.9,9h7l4.4,7.7L15,24.3H6.1l-3.5-6.1c-0.2,0.6-0.4,1.3-0.5,1.9L4.9,25l-2.8,4.9c0.1,0.6,0.3,1.3,0.5,1.9l3.5-6.1
			H15l4.4,7.7L15,41h-7c0.5,0.5,0.9,0.9,1.4,1.4H15l2.8,4.9c0.6,0.2,1.2,0.4,1.9,0.5l-3.5-6.1l4.4-7.7h8.8l4.4,7.7l-3.5,6.1
			c0.6-0.1,1.3-0.3,1.9-0.5l2.8-4.9h5.6c0.5-0.4,1-0.9,1.4-1.4h-7l-4.4-7.7l4.4-7.7h8.9l3.5,6.1c0.2-0.6,0.4-1.3,0.5-1.9L45.1,25
			L47.9,20.1z M29.4,32.7h-8.8L16.2,25l4.4-7.7h8.8l4.4,7.7L29.4,32.7z"/>
	</g>
	<path class="st2" d="M25,50C11.2,50,0,38.8,0,25C0,11.2,11.2,0,25,0c13.8,0,25,11.2,25,25C50,38.8,38.8,50,25,50z M25,1.7
		C12.2,1.7,1.7,12.2,1.7,25c0,12.8,10.4,23.3,23.3,23.3c12.8,0,23.3-10.4,23.3-23.3C48.3,12.2,37.8,1.7,25,1.7z"/>
</g>
</svg>
