<?xml version="1.0" encoding="utf-8"?>
<!-- Generator: Adobe Illustrator 21.0.2, SVG Export Plug-In . SVG Version: 6.00 Build 0)  -->
<svg version="1.1" id="Layer_1" xmlns="http://www.w3.org/2000/svg" xmlns:xlink="http://www.w3.org/1999/xlink" x="0px" y="0px"
	 viewBox="0 0 55.9 33.5" style="enable-background:new 0 0 55.9 33.5;" xml:space="preserve">
<style type="text/css">
	.st0{fill:#FFFFFF;}
</style>
<g>
	<g>
		<path class="st0" d="M26.9,7.1c-2.7,0-5.1,1.6-6.2,3.9l-0.3-1.6C20.3,9.1,20,9,19.8,9c-0.3,0.1-0.4,0.3-0.4,0.6l0.7,3.3l0,0
			c0,0,0,0,0,0c0,0.1,0,0.1,0.1,0.1c0,0,0,0,0,0c0,0,0.1,0.1,0.1,0.1c0,0,0,0,0.1,0c0,0,0.1,0,0.1,0c0,0,0,0,0,0c0,0,0,0,0,0
			c0,0,0,0,0.1,0c0,0,0.1,0,0.1,0c0.1,0,0.1-0.1,0.2-0.1c0,0,0.1,0,0.1,0l2.7-2.1c0.2-0.2,0.3-0.5,0.1-0.7c-0.2-0.2-0.5-0.3-0.7-0.1
			l-1.5,1.2c1-2,3-3.4,5.3-3.4c3.3,0,5.9,2.6,5.9,5.9s-2.6,5.9-5.9,5.9c-2.8,0-5.2-2-5.8-4.7c-0.1-0.3-0.3-0.4-0.6-0.4
			c-0.3,0.1-0.4,0.3-0.4,0.6c0.7,3.2,3.5,5.5,6.8,5.5c3.8,0,6.9-3.1,6.9-6.9S30.7,7.1,26.9,7.1z"/>
		<path class="st0" d="M28.7,14.5h-1.9v-2.9c0-0.2-0.2-0.4-0.4-0.4c-0.2,0-0.4,0.2-0.4,0.4v3.3c0,0.2,0.2,0.4,0.4,0.4h2.3
			c0.2,0,0.4-0.2,0.4-0.4C29.1,14.7,28.9,14.5,28.7,14.5z"/>
	</g>
</g>
</svg>
