<?xml version="1.0" encoding="utf-8"?>
<!-- Generator: Adobe Illustrator 21.0.2, SVG Export Plug-In . SVG Version: 6.00 Build 0)  -->
<svg version="1.1" id="Layer_1" xmlns="http://www.w3.org/2000/svg" xmlns:xlink="http://www.w3.org/1999/xlink" x="0px" y="0px"
	 viewBox="0 0 55.9 33.5" style="enable-background:new 0 0 55.9 33.5;" xml:space="preserve">
<style type="text/css">
	.st0{fill:#9E353B;}
	.st1{fill:#FFFFFF;}
	.st2{fill:#333333;}
</style>
<g>
	<polygon class="st1" points="27.8,20.6 32.6,17.3 27.8,14 27.8,15.9 20.6,15.9 20.6,18.7 27.8,18.7 	"/>
	<polygon class="st1" points="25.4,14.3 20.6,10.9 25.4,7.6 25.4,9.6 32.6,9.6 32.6,12.3 25.4,12.3 	"/>
	<path class="st1" d="M19.7,16.2h-3.2c-0.1,0-0.1-0.1-0.1-0.1c0-0.1,0.1-0.1,0.1-0.1h3.2c0.1,0,0.1,0.1,0.1,0.1
		C19.8,16.1,19.7,16.2,19.7,16.2z"/>
	<path class="st1" d="M19.7,17.4h-6.5c-0.1,0-0.1-0.1-0.1-0.1s0.1-0.1,0.1-0.1h6.5c0.1,0,0.1,0.1,0.1,0.1S19.7,17.4,19.7,17.4z"/>
	<path class="st1" d="M19.7,18.4h-2c-0.1,0-0.1-0.1-0.1-0.1s0.1-0.1,0.1-0.1h2c0.1,0,0.1,0.1,0.1,0.1S19.7,18.4,19.7,18.4z"/>
	<path class="st1" d="M36.7,9.9h-3.2c-0.1,0-0.1-0.1-0.1-0.1s0.1-0.1,0.1-0.1h3.2c0.1,0,0.1,0.1,0.1,0.1S36.8,9.9,36.7,9.9z"/>
	<path class="st1" d="M40,11.1h-6.5c-0.1,0-0.1-0.1-0.1-0.1s0.1-0.1,0.1-0.1H40c0.1,0,0.1,0.1,0.1,0.1S40,11.1,40,11.1z"/>
	<path class="st1" d="M35.5,12.2h-2c-0.1,0-0.1-0.1-0.1-0.1s0.1-0.1,0.1-0.1h2c0.1,0,0.1,0.1,0.1,0.1S35.5,12.2,35.5,12.2z"/>
</g>
</svg>
