<?xml version="1.0" encoding="utf-8"?>
<!-- Generator: Adobe Illustrator 21.1.0, SVG Export Plug-In . SVG Version: 6.00 Build 0)  -->
<svg version="1.1" id="Layer_1" xmlns="http://www.w3.org/2000/svg" xmlns:xlink="http://www.w3.org/1999/xlink" x="0px" y="0px"
	 viewBox="0 0 98 103" style="enable-background:new 0 0 98 103;" xml:space="preserve">
<style type="text/css">
	.st0{fill:#E4D3C2;}
	.st1{fill:#D84F4F;}
	.st2{fill:#373127;}
	.st3{fill:#6B5845;}
	.st4{fill:#E63F40;}
	.st5{fill:#F6C54D;}
	.st6{fill:none;stroke:#BA393B;stroke-width:7;stroke-miterlimit:10;}
	.st7{fill:#D1D3D2;}
	.st8{fill:#B1B3B4;}
	.st9{fill:#9C9FA1;}
	.st10{fill:#FFFFFF;}
	.st11{fill:#BB373A;}
	.st12{fill:none;stroke:#912C30;stroke-width:7;stroke-miterlimit:10;}
	.st13{fill:#912C30;}
	.st14{fill:#C2AC91;}
	.st15{fill:#2B2E31;}
</style>
<g>
	<g>
		<path class="st0" d="M75.5,0h-53c-3.1,0-5.6,2.6-5.6,5.7v82.2c0,3.2,2.6,5.7,5.7,5.7h52.9c3.1,0,5.7-2.5,5.7-5.6V5.7
			C81.2,2.5,78.5,0,75.5,0z"/>
		<path class="st1" d="M70.1,89.7H28c-4,0-7.2-3.2-7.2-7.2V11.1c0-4,3.2-7.2,7.2-7.2h42c4,0,7.2,3.2,7.2,7.2v71.4
			C77.2,86.5,74,89.7,70.1,89.7z M28,6.9c-2.3,0-4.2,1.9-4.2,4.2v71.4c0,2.3,1.9,4.2,4.2,4.2h42.1c2.3,0,4.1-1.9,4.1-4.2V11.1
			c0-2.3-1.9-4.2-4.2-4.2H28z"/>
	</g>
	<g>
		<path class="st2" d="M41.2,54c-2.5,0-5.6-0.8-9.2-3c-1.2-0.8-1.6-2.4-0.8-3.6c0.8-1.2,2.4-1.6,3.6-0.8c7.5,4.7,10.7,0.5,11.1,0
			l0,0l4.4,2.9c-0.2,0.3-1.7,2.5-4.8,3.8C44.5,53.5,43,54,41.2,54z"/>
		<rect x="40.2" y="41.4" class="st3" width="17.8" height="28.4"/>
		<rect x="40.2" y="45.1" class="st4" width="17.8" height="21.2"/>
		<rect x="42.3" y="45.1" class="st5" width="2.2" height="21.2"/>
		<rect x="46.8" y="45.1" class="st5" width="2.2" height="21.2"/>
		<rect x="51.3" y="45.1" class="st5" width="2.2" height="21.2"/>
		<path class="st6" d="M40.2,45.1h4.6c0,1.5,1.2,2.8,2.8,2.8s2.8-1.2,2.8-2.8h7.6"/>
		<path class="st7" d="M47.6,47.3c1.2,0,2.2-1,2.2-2.2h-4.3C45.3,46.3,46.3,47.3,47.6,47.3z"/>
		<path class="st7" d="M35.3,52.9l-0.7-0.1c-1-0.1-1.7-1-1.6-2l0.6-5.2c0.1-1,1-1.7,2-1.6l0.7,0.1c1,0.1,1.7,1,1.6,2l-0.5,5.2
			C37.3,52.3,36.3,53,35.3,52.9z"/>
		<path class="st8" d="M36.8,52.2l-0.6,0.4c-0.9,0.6-2,0.3-2.6-0.6l-2.8-4.4c-0.6-0.8-0.3-2,0.6-2.5l0.6-0.4c0.8-0.6,2-0.3,2.5,0.6
			l2.8,4.4C38,50.5,37.7,51.6,36.8,52.2z"/>
		<path class="st9" d="M36.2,52.6l-0.4,0.6c-0.6,0.8-1.7,1-2.6,0.5l-4.3-3c-0.8-0.6-1-1.7-0.5-2.6l0.4-0.6c0.6-0.8,1.7-1,2.6-0.5
			l4.3,3C36.6,50.6,36.8,51.8,36.2,52.6z"/>
		<rect x="32.3" y="50.8" transform="matrix(0.866 -0.5 0.5 0.866 -21.4255 23.5805)" class="st10" width="1.9" height="1.9"/>
		<rect x="32.7" y="50" class="st10" width="1.9" height="1.9"/>
		
			<rect x="34.6" y="49.5" transform="matrix(0.7746 -0.6325 0.6325 0.7746 -23.8976 33.8636)" class="st10" width="1.9" height="1.9"/>
		<path class="st3" d="M43.1,56.5c-2.7,0-5.6-0.5-8.8-1.8c-1.4-0.6-2-2.1-1.4-3.4s2.1-2,3.4-1.4c11.1,4.7,18.9-3.7,19-3.8
			c1-1.1,2.6-1.1,3.7-0.1c1.1,1,1.1,2.6,0.1,3.7c-0.1,0.1-2.7,2.9-7,4.8C49.8,55.6,46.7,56.5,43.1,56.5z"/>
		<path class="st11" d="M50.3,49.5c3-1.5,4.8-3.4,4.9-3.4c1-1.1,2.6-1.1,3.7-0.1c1.1,1,1.1,2.6,0.1,3.7c-0.1,0.1-2.5,2.6-6.4,4.6
			L50.3,49.5z"/>
		<line class="st12" x1="52.7" y1="54.2" x2="50.3" y2="49.5"/>
		<g>
			<rect x="27.7" y="62.3" class="st11" width="42.7" height="9.2"/>
			<path class="st13" d="M69.5,63.2v7.3H28.7v-7.3H69.5 M71.4,61.4H26.8v11h44.6V61.4L71.4,61.4z"/>
		</g>
		<g>
			<path class="st10" d="M39.3,69v-2.8l0,0l-1,2.8h-0.8l-1-2.8l0,0V69h-0.8v-4.2h1.1l1.1,3.1l0,0l1.1-3.1h1.1V69H39.3z"/>
			<path class="st10" d="M43.5,68.3V69h-1.8L41,68.6v-2.2l0.7-0.4h1.1l0.7,0.4v1.4h-1.7v0.5H43.5L43.5,68.3z M41.8,66.7v0.5h0.8
				v-0.5H41.8z"/>
			<path class="st10" d="M45.2,66.7v1.6h1.5V69h-1.6l-0.7-0.4v-2.2l0.7-0.4h1.6v0.7L45.2,66.7L45.2,66.7z"/>
			<path class="st10" d="M48.3,69h-0.8v-4.4h0.8v1.6l0.4-0.3h0.8l0.7,0.4v2.6h-0.8v-2.3h-1.1C48.3,66.6,48.3,69,48.3,69z"/>
			<path class="st10" d="M53.6,68.3V69h-1.8l-0.7-0.4v-2.2l0.7-0.4h1.1l0.7,0.4v1.4h-1.7v0.5H53.6L53.6,68.3z M51.8,66.7v0.5h0.8
				v-0.5H51.8z"/>
			<path class="st10" d="M55.2,69l-0.7-0.4v-4h0.8v3.7h0.6V69H55.2L55.2,69z"/>
			<path class="st10" d="M56.3,65.4v-0.8h0.9v0.8H56.3z M57.3,66v3h-0.8v-3H57.3z"/>
			<path class="st10" d="M60.8,66.4V69H60v-2.3h-1V69h-0.8v-3h0.7l0.1,0.3l0.4-0.3h0.7L60.8,66.4z"/>
			<path class="st10" d="M61.7,65.4v-0.8h0.9v0.8H61.7z M62.5,66v3h-0.8v-3H62.5z"/>
		</g>
		<rect x="46.7" y="24.9" class="st3" width="12.5" height="6.4"/>
		<circle class="st3" cx="44.8" cy="24.9" r="3.7"/>
		<circle class="st14" cx="44.8" cy="24.9" r="2.5"/>
		<circle class="st3" cx="57.6" cy="24.9" r="3.7"/>
		<circle class="st14" cx="57.6" cy="24.9" r="2.5"/>
		<path class="st3" d="M53.7,45.1h-9.2c-3,0-5.5-2.5-5.5-5.5v-9.2c0-3,2.5-5.5,5.5-5.5h9.2c3,0,5.5,2.5,5.5,5.5v9.2
			C59.2,42.7,56.7,45.1,53.7,45.1z"/>
		<path class="st14" d="M46.3,27.4h5.5c3,0,5.5,2.5,5.5,5.5v1.2c0,3-2.5,5.5-5.5,5.5h-5.5c-3,0-5.5-2.5-5.5-5.5v-1.2
			C40.8,29.9,43.3,27.4,46.3,27.4z"/>
		<path class="st14" d="M50.3,43.3H38.7c-1.5,0-2.6-1.2-2.6-2.6v-1h0.7v-6.5c0-0.5,0.4-0.9,0.9-0.9h15.4v8.4
			C53,42.1,51.8,43.3,50.3,43.3z"/>
		<path class="st2" d="M39.1,29.9L39.1,29.9c-1.3,0-2.4,1.1-2.4,2.4v2.4h3.6c0.7,0,1.2-0.6,1.2-1.2v-1.2
			C41.5,30.9,40.5,29.9,39.1,29.9z"/>
		<path class="st2" d="M41.3,40.1h-5.3v-0.9h5.4c1.7,0,3-1.4,3-3h0.9C45.3,38.3,43.6,40.1,41.3,40.1z"/>
		<path class="st2" d="M38.5,31.8h-0.9v3.7c0,0.3,0.2,0.4,0.4,0.4l0,0c0.3,0,0.4-0.2,0.4-0.4C38.5,35.5,38.5,31.8,38.5,31.8z"/>
		<circle class="st2" cx="44.8" cy="36.2" r="0.4"/>
		<circle class="st2" cx="36.1" cy="39.6" r="0.4"/>
		<ellipse transform="matrix(0.9911 -0.1333 0.1333 0.9911 -4.3966 5.7234)" class="st3" cx="40.5" cy="35.7" rx="0.4" ry="0.4"/>
		<ellipse transform="matrix(0.9911 -0.1333 0.1333 0.9911 -4.3664 5.574)" class="st3" cx="39.4" cy="35.4" rx="0.4" ry="0.4"/>
		<ellipse transform="matrix(0.9911 -0.1333 0.1333 0.9911 -4.5663 5.6008)" class="st3" cx="39.5" cy="36.9" rx="0.4" ry="0.4"/>
		<circle class="st15" cx="44.5" cy="31.2" r="2.2"/>
		<circle class="st10" cx="44" cy="31.8" r="0.8"/>
		<circle class="st15" cx="51.3" cy="31.2" r="2.2"/>
		<circle class="st10" cx="50.8" cy="31.8" r="0.8"/>
	</g>
</g>
</svg>
