<?xml version="1.0" encoding="utf-8"?>
<!-- Generator: Adobe Illustrator 21.0.2, SVG Export Plug-In . SVG Version: 6.00 Build 0)  -->
<svg version="1.1" id="Layer_1" xmlns="http://www.w3.org/2000/svg" xmlns:xlink="http://www.w3.org/1999/xlink" x="0px" y="0px"
	 viewBox="0 0 98 103" style="enable-background:new 0 0 98 103;" xml:space="preserve">
<style type="text/css">
	.st0{fill:#D84F4F;}
	.st1{fill:#A43E41;}
	.st2{fill:#E4D3C2;}
	.st3{fill:none;stroke:#D84F4F;stroke-width:3;stroke-miterlimit:10;}
	.st4{fill:#FFFFFF;}
</style>
<g>
	<polygon class="st0" points="98.4,90 77.4,90 77.4,77.3 98.4,77.3 89.3,83.7 	"/>
	<polygon class="st1" points="77.4,77.3 86.5,71 86.5,83.7 77.4,90 	"/>
	<polygon class="st0" points="-0.3,90 20.8,90 20.8,77.3 -0.3,77.3 8.8,83.7 	"/>
	<polygon class="st1" points="20.8,77.3 11.6,71 11.6,83.7 20.8,90 	"/>
	<path class="st2" d="M75.5,93.9H22.6c-3.1,0-5.7-2.5-5.7-5.7V6c0-3.1,2.5-5.7,5.7-5.7h52.9c3.1,0,5.7,2.5,5.7,5.7v82.3
		C81.2,91.4,78.6,93.9,75.5,93.9z"/>
	<path class="st3" d="M70.1,88.5H28c-3.1,0-5.7-2.5-5.7-5.7V11.4c0-3.1,2.5-5.7,5.7-5.7h42c3.1,0,5.7,2.5,5.7,5.7v71.4
		C75.7,85.9,73.2,88.5,70.1,88.5z"/>
	<rect x="11.6" y="71" class="st0" width="74.9" height="12.7"/>
	<path class="st1" d="M66.8,66H31.3c-1.6,0-2.8-1.3-2.8-2.8V14.7c0-1.6,1.3-2.8,2.8-2.8h35.4c1.6,0,2.8,1.3,2.8,2.8v48.5
		C69.6,64.8,68.3,66,66.8,66z"/>
	<path class="st1" d="M70,86.2H28.1c-0.6,0-1.2-0.5-1.2-1.2v-0.4c0-0.6,0.5-1.2,1.2-1.2H70c0.6,0,1.2,0.5,1.2,1.2v0.4
		C71.2,85.7,70.6,86.2,70,86.2z"/>
	<path class="st1" d="M67.2,89H30.8c-0.6,0-1.2-0.5-1.2-1.2v-0.4c0-0.6,0.5-1.2,1.2-1.2h36.4c0.6,0,1.2,0.5,1.2,1.2v0.4
		C68.4,88.5,67.9,89,67.2,89z"/>
	<path class="st1" d="M64.5,91.7H33.6c-0.6,0-1.2-0.5-1.2-1.2v-0.4c0-0.6,0.5-1.2,1.2-1.2h30.9c0.6,0,1.2,0.5,1.2,1.2v0.4
		C65.7,91.2,65.1,91.7,64.5,91.7z"/>
	<path class="st1" d="M61.2,94.5H36.9c-0.6,0-1.2-0.5-1.2-1.2v-0.4c0-0.6,0.5-1.2,1.2-1.2h24.3c0.6,0,1.2,0.5,1.2,1.2v0.4
		C62.3,94,61.8,94.5,61.2,94.5z"/>
	<circle class="st1" cx="49.1" cy="92.2" r="10.9"/>
	<circle class="st4" cx="49" cy="92.2" r="9.2"/>
</g>
</svg>
